<svg width="87" height="78" viewBox="0 0 87 78" fill="none" xmlns="http://www.w3.org/2000/svg">
<g clip-path="url(#clip0_18_108)">
<path d="M62.779 8.03588C58.9414 4.19856 54.0525 1.58547 48.7303 0.526983C43.4081 -0.531505 37.8916 0.0121423 32.8783 2.08918C27.865 4.16622 23.5799 7.68339 20.5649 12.196C17.5498 16.7087 15.9402 22.0141 15.9395 27.4417V44.9528H18.0993V27.4417C18.0993 20.7363 20.7624 14.3056 25.5028 9.56415C30.2432 4.82273 36.6726 2.15904 43.3765 2.15904C50.0804 2.15904 56.5098 4.82273 61.2501 9.56415C65.9905 14.3056 68.6537 20.7363 68.6537 27.4417V44.9528H70.8131V27.4417C70.8228 23.8365 70.1178 20.2651 68.7388 16.9341C67.3597 13.6032 65.3341 10.5788 62.779 8.03588V8.03588Z" fill="#037B35"/>
<path d="M43.3763 37.8729C43.2952 37.873 43.2141 37.8769 43.1331 37.8776C42.9912 37.1043 42.8645 36.328 42.7531 35.5489C45.308 35.4184 47.7503 34.4564 49.708 32.8092C51.6657 31.1621 53.0316 28.9201 53.5976 26.4248L53.8175 25.4424L52.8109 25.4913C50.5416 25.5988 48.3525 26.3644 46.5106 27.6947C44.6687 29.025 43.2536 30.8626 42.4377 32.9833V32.9883L42.4364 32.9922C42.185 30.4887 42.0857 27.9723 42.1391 25.4568L42.5404 25.4424C45.9381 25.3018 49.1963 24.0515 51.8162 21.883C54.4361 19.7144 56.2735 16.7469 57.0472 13.4347L57.2768 12.4524L56.2655 12.4964C53.1615 12.6244 50.167 13.6794 47.668 15.5252C45.1689 17.371 43.2798 19.9232 42.244 22.8527C42.288 22.1522 42.3406 21.4521 42.4085 20.753C42.5213 19.574 42.6693 18.3983 42.8525 17.2259C43.2175 14.8784 43.7172 12.5538 44.3492 10.2637C43.6104 12.5282 43.0025 14.8334 42.5284 17.1678C42.2883 18.3357 42.0849 19.5112 41.9181 20.694C41.7481 21.8757 41.6093 23.0629 41.5109 24.2541C41.3454 26.1902 41.2708 28.1333 41.2873 30.0835C41.2862 30.0776 41.2857 30.0716 41.2847 30.0657V30.0608C40.7507 27.1484 39.3739 24.4569 37.325 22.3198C35.2761 20.1827 32.6451 18.694 29.7583 18.0384L28.7762 17.8136L28.8251 18.8204C28.9818 22.1192 30.2155 25.2757 32.337 27.8064C34.4585 30.3371 37.3509 32.1024 40.5713 32.8318L41.3726 33.0126L41.3739 33.0129C41.4618 34.6518 41.6156 36.2868 41.8351 37.9181C39.3367 38.0397 36.8639 38.4775 34.4756 39.2212C31.6086 40.0961 28.9287 41.4957 26.5723 43.3488C31.8128 40.8208 37.5581 39.5139 43.3763 39.5262C49.1942 39.5169 54.9388 40.8237 60.1804 43.3488C57.8249 41.4939 55.1451 40.0935 52.2775 39.219C49.3957 38.322 46.3944 37.8681 43.3763 37.8729V37.8729ZM46.8255 29.3962C48.2445 28.1968 49.9678 27.4136 51.8044 27.1334C51.2022 28.8896 50.1323 30.448 48.7099 31.6408C47.2874 32.8336 45.5665 33.6154 43.7326 33.9021C44.3302 32.1445 45.4003 30.5855 46.8255 29.3962V29.3962ZM47.9688 17.2369C50.0463 15.5074 52.5833 14.4221 55.2686 14.114C54.4571 16.6915 52.9179 18.9794 50.8366 20.7022C48.7552 22.4251 46.2203 23.5094 43.5371 23.8248C44.3421 21.2443 45.8822 18.9548 47.9688 17.2369V17.2369ZM33.5157 26.8206C31.8352 24.8297 30.7692 22.3932 30.4473 19.8075C32.9315 20.5829 35.1411 22.0551 36.8136 24.0493C38.4861 26.0435 39.5511 28.476 39.8823 31.0578C37.3949 30.2913 35.1833 28.8194 33.5157 26.8206V26.8206Z" fill="#037B35"/>
<path d="M43.3766 42.6938C41.0629 42.6916 38.7623 43.0401 36.5531 43.7275C34.3551 44.3982 32.3007 45.4712 30.4941 46.8918C34.5117 44.9538 38.9162 43.9519 43.3766 43.9613C47.8367 43.9542 52.2407 44.956 56.2591 46.8918C54.4533 45.4698 52.3988 44.3962 50.2005 43.7258C47.9913 43.0382 45.6904 42.6902 43.3766 42.6938V42.6938Z" fill="#037B35"/>
<path d="M0 68.3122L4.53787 55.2909H8.42502L12.8511 68.3122H10.2659L9.35468 65.5964H3.55234L2.60376 68.3122H0ZM8.61069 63.3269L6.47199 56.8907L4.29588 63.3269H8.61069Z" fill="#037B35"/>
<path d="M13.875 68.3122V55.2909H16.2931V68.3122H13.875Z" fill="#037B35"/>
<path d="M18.021 54.9747C18.3129 54.6998 18.6987 54.5467 19.0996 54.5467C19.5005 54.5467 19.8863 54.6998 20.1782 54.9747C20.3217 55.1071 20.4357 55.2683 20.5127 55.4478C20.5896 55.6273 20.6278 55.821 20.6248 56.0163C20.629 56.209 20.5912 56.4004 20.5141 56.5771C20.437 56.7537 20.3224 56.9115 20.1782 57.0395C20.0358 57.1787 19.8671 57.2883 19.682 57.3617C19.4968 57.4351 19.299 57.471 19.0998 57.4672C18.6991 57.4754 18.3114 57.325 18.021 57.0487C17.8772 56.9185 17.763 56.7589 17.686 56.5809C17.609 56.4028 17.5709 56.2103 17.5744 56.0163C17.5715 55.8211 17.6097 55.6274 17.6867 55.4479C17.7636 55.2684 17.8776 55.1072 18.021 54.9747V54.9747ZM20.2899 58.4532V68.3122H17.8723V58.4532H20.2899Z" fill="#037B35"/>
<path d="M32.5277 55.2909C33.5923 55.235 34.6388 55.5838 35.457 56.2674C35.8082 56.5731 36.0877 56.9524 36.2758 57.3784C36.4638 57.8044 36.5558 58.2666 36.5451 58.7322C36.5527 59.3342 36.4019 59.9276 36.1077 60.4528C35.8274 60.9567 35.412 61.3722 34.9084 61.6527C35.5692 61.904 36.1371 62.3521 36.5354 62.9364C36.901 63.4941 37.092 64.1481 37.084 64.815C37.0961 65.2902 37.0022 65.7621 36.8092 66.1964C36.6162 66.6308 36.3289 67.0167 35.9682 67.3262C35.1158 68.0209 34.0348 68.3725 32.9368 68.3122H26.5762V55.2909H32.5277ZM28.9943 57.5418V60.797H32.4159C32.6478 60.8069 32.8793 60.77 33.0966 60.6885C33.314 60.607 33.5126 60.4826 33.6809 60.3226C33.8375 60.1728 33.9613 59.9922 34.0445 59.7921C34.1278 59.592 34.1686 59.3768 34.1644 59.1602C34.1695 58.9455 34.1299 58.7322 34.0483 58.5336C33.9667 58.3351 33.8447 58.1557 33.6901 58.0067C33.5256 57.8503 33.3314 57.7285 33.1189 57.6486C32.9065 57.5687 32.6801 57.5324 32.4533 57.5418H28.9943ZM28.9943 62.8061V66.0613H32.7697C33.2406 66.0839 33.7015 65.9202 34.0526 65.6056C34.2125 65.4544 34.3383 65.2708 34.4217 65.0672C34.5051 64.8635 34.5441 64.6444 34.5361 64.4245C34.5423 64.2058 34.5005 63.9884 34.4138 63.7876C34.3271 63.5867 34.1975 63.4073 34.0341 63.2618C33.6805 62.9511 33.2211 62.788 32.7507 62.8061L28.9943 62.8061Z" fill="#037B35"/>
<path d="M39.1295 59.7553C39.5722 59.2833 40.1085 58.9088 40.7041 58.6557C41.2997 58.4027 41.9415 58.2767 42.5885 58.2857C43.1414 58.2734 43.6906 58.378 44.2002 58.5928C44.7098 58.8076 45.1683 59.1276 45.5456 59.532V58.4532H47.9632V68.3122H45.5456V67.2519C45.1643 67.6486 44.7042 67.9611 44.1949 68.1693C43.6857 68.3775 43.1385 68.4769 42.5885 68.461C41.9399 68.467 41.2972 68.3358 40.7027 68.0761C40.1082 67.8165 39.5753 67.4341 39.1387 66.9542C38.215 65.9841 37.699 64.6963 37.6973 63.3566C37.6955 62.017 38.2082 60.7278 39.1295 59.7554V59.7553ZM39.9663 63.3828C39.9602 63.7606 40.0303 64.1356 40.1725 64.4856C40.3147 64.8356 40.5261 65.1533 40.7939 65.4197C41.0589 65.6885 41.3749 65.9018 41.7233 66.0471C42.0717 66.1924 42.4455 66.2668 42.823 66.266C43.2005 66.2651 43.574 66.189 43.9217 66.0421C44.2695 65.8952 44.5844 65.6805 44.8482 65.4104C45.1193 65.1475 45.3341 64.8321 45.4795 64.4836C45.625 64.135 45.6981 63.7605 45.6943 63.3828C45.6975 63.0038 45.6242 62.628 45.4789 62.278C45.3335 61.928 45.119 61.6109 44.8482 61.3457C44.586 61.073 44.2715 60.8559 43.9236 60.7073C43.5756 60.5587 43.2014 60.4816 42.823 60.4808C42.4447 60.4799 42.0701 60.5552 41.7215 60.7022C41.3728 60.8493 41.0574 61.065 40.7939 61.3365C40.5264 61.6051 40.3154 61.9245 40.1732 62.276C40.0311 62.6274 39.9607 63.0037 39.9663 63.3828V63.3828Z" fill="#037B35"/>
<path d="M49.4688 58.4532H51.8864V59.9228C52.1729 59.3988 52.6147 58.9764 53.1509 58.7137C53.6493 58.4708 54.1962 58.3436 54.7506 58.3416C55.025 58.3429 55.2988 58.3678 55.569 58.416V61.0016C55.2089 60.8818 54.8322 60.8191 54.4528 60.8157C53.8607 60.8412 53.2862 61.0242 52.7883 61.3457C52.1869 61.6993 51.8863 62.3473 51.8864 63.2897V68.3122H49.4688L49.4688 58.4532Z" fill="#037B35"/>
<path d="M57.2623 59.7553C57.705 59.2833 58.2413 58.9088 58.8369 58.6557C59.4325 58.4027 60.0743 58.2767 60.7214 58.2857C61.2742 58.2734 61.8234 58.378 62.333 58.5928C62.8426 58.8076 63.3011 59.1276 63.6784 59.532V58.4532H66.096V68.3122H63.6784V67.2519C63.2971 67.6486 62.837 67.9611 62.3278 68.1693C61.8185 68.3775 61.2713 68.4769 60.7214 68.461C60.0727 68.467 59.43 68.3358 58.8355 68.0761C58.241 67.8165 57.7081 67.4342 57.2715 66.9542C56.3478 65.9841 55.8318 64.6963 55.8301 63.3566C55.8284 62.017 56.3411 60.7278 57.2623 59.7554L57.2623 59.7553ZM58.0991 63.3828C58.093 63.7606 58.1631 64.1356 58.3053 64.4856C58.4475 64.8356 58.6588 65.1533 58.9267 65.4197C59.1917 65.6885 59.5077 65.9018 59.8561 66.0471C60.2045 66.1924 60.5783 66.2668 60.9558 66.266C61.3333 66.2651 61.7068 66.189 62.0545 66.0421C62.4022 65.8952 62.7172 65.6805 62.981 65.4104C63.2521 65.1475 63.4669 64.8321 63.6123 64.4836C63.7578 64.135 63.8308 63.7605 63.8271 63.3828C63.8303 63.0038 63.757 62.628 63.6117 62.278C63.4663 61.928 63.2518 61.6109 62.981 61.3457C62.7188 61.073 62.4043 60.8559 62.0564 60.7073C61.7084 60.5587 61.3341 60.4816 60.9558 60.4808C60.5775 60.4799 60.2029 60.5552 59.8543 60.7022C59.5056 60.8493 59.1902 61.065 58.9267 61.3365C58.6592 61.6051 58.4481 61.9245 58.306 62.276C58.1639 62.6274 58.0935 63.0038 58.0991 63.3828V63.3828Z" fill="#037B35"/>
<path d="M70.113 55.2909V62.8433L74.1488 58.4532H77.0315L72.81 62.9549L77.1432 68.3122H74.3164L71.3779 64.5175L70.113 65.8941V68.3122H67.6953V55.2909H70.113Z" fill="#037B35"/>
<path d="M78.1666 59.7553C78.6093 59.2833 79.1456 58.9088 79.7412 58.6557C80.3368 58.4027 80.9786 58.2767 81.6256 58.2857C82.1785 58.2734 82.7277 58.378 83.2373 58.5928C83.7469 58.8076 84.2054 59.1276 84.5827 59.532V58.4532H87.0003V68.3122H84.5827V67.2519C84.2014 67.6486 83.7413 67.9611 83.232 68.1693C82.7228 68.3775 82.1756 68.4769 81.6256 68.461C80.9769 68.467 80.3343 68.3358 79.7398 68.0761C79.1453 67.8165 78.6124 67.4342 78.1758 66.9542C77.2521 65.9841 76.7361 64.6963 76.7344 63.3566C76.7327 62.017 77.2453 60.7278 78.1666 59.7554L78.1666 59.7553ZM79.0034 63.3828C78.9973 63.7606 79.0674 64.1356 79.2096 64.4856C79.3518 64.8356 79.5632 65.1533 79.831 65.4197C80.096 65.6885 80.412 65.9018 80.7604 66.0471C81.1088 66.1924 81.4826 66.2668 81.8601 66.266C82.2376 66.2651 82.6111 66.189 82.9588 66.0421C83.3066 65.8952 83.6215 65.6805 83.8853 65.4104C84.1564 65.1475 84.3712 64.8321 84.5166 64.4836C84.6621 64.135 84.7352 63.7605 84.7314 63.3828C84.7346 63.0038 84.6614 62.628 84.516 62.278C84.3706 61.928 84.1561 61.6109 83.8853 61.3457C83.6231 61.073 83.3086 60.8559 82.9607 60.7073C82.6127 60.5587 82.2385 60.4816 81.8601 60.4808C81.4818 60.4799 81.1072 60.5552 80.7586 60.7022C80.41 60.8493 80.0945 61.065 79.831 61.3365C79.5635 61.6051 79.3525 61.9245 79.2103 62.276C79.0682 62.6274 78.9978 63.0037 79.0034 63.3828V63.3828Z" fill="#037B35"/>
<path d="M16.2441 77.1672V73.3619H18.2896C18.6162 73.3477 18.9382 73.4424 19.2052 73.6312C19.3204 73.7167 19.413 73.8292 19.4749 73.9587C19.5368 74.0882 19.5661 74.2309 19.5602 74.3743C19.3872 74.451 19.2421 74.5793 19.1448 74.7417C19.0476 74.9042 19.003 75.0927 19.0172 75.2815C19.0314 75.4703 19.1036 75.65 19.224 75.7961C19.3444 75.9422 19.507 76.0474 19.6896 76.0974C19.6946 76.2469 19.6641 76.3956 19.6005 76.531C19.5368 76.6664 19.4419 76.7848 19.3235 76.8763C19.053 77.0787 18.7209 77.1815 18.3833 77.1672L16.2441 77.1672ZM16.9402 74.9844H18.2108C18.6464 74.9844 18.8642 74.8169 18.8642 74.4819C18.8642 74.1516 18.6536 73.9865 18.2324 73.9866H16.9402L16.9402 74.9844ZM16.9402 76.5425H18.3041C18.7493 76.5425 18.9718 76.3702 18.9715 76.0256C18.9715 75.6811 18.7419 75.5087 18.2825 75.5086H16.9402L16.9402 76.5425Z" fill="#037B35"/>
<path d="M20.7675 73.8645C20.9492 73.6805 21.1662 73.5354 21.4056 73.4379C21.645 73.3404 21.9016 73.2925 22.1601 73.2972C22.5484 73.2929 22.9281 73.4124 23.2441 73.6383C23.5595 73.8594 23.8038 74.1675 23.9472 74.525L23.2798 74.6973C23.1903 74.4754 23.0351 74.2863 22.835 74.1553C22.5901 73.9996 22.2992 73.9328 22.011 73.9661C21.7228 73.9995 21.4548 74.1309 21.252 74.3384C21.1315 74.4602 21.0367 74.6049 20.9733 74.764C20.9098 74.9231 20.8789 75.0933 20.8824 75.2646C20.8788 75.4356 20.91 75.6056 20.9742 75.7642C21.0383 75.9228 21.134 76.0667 21.2555 76.1871C21.3723 76.3088 21.5128 76.4051 21.6685 76.4699C21.8241 76.5348 21.9915 76.5668 22.1601 76.5641C22.399 76.5658 22.633 76.4963 22.8324 76.3647C23.0318 76.233 23.1875 76.045 23.2798 75.8245L23.9472 75.9968C23.8065 76.3559 23.5632 76.6655 23.2477 76.8871C22.93 77.1119 22.5492 77.2301 22.16 77.2246C21.8995 77.2304 21.6405 77.1821 21.3996 77.0826C21.1587 76.9831 20.941 76.8346 20.7605 76.6466C20.3958 76.275 20.1921 75.7748 20.1934 75.2541C20.1947 74.7334 20.401 74.2342 20.7675 73.8645L20.7675 73.8645Z" fill="#037B35"/>
<path d="M26.3588 77.2246C26.1002 77.2302 25.8432 77.1821 25.6041 77.0832C25.365 76.9844 25.149 76.837 24.9699 76.6503C24.6073 76.2784 24.4049 75.7791 24.4063 75.2596C24.4076 74.7401 24.6124 74.2418 24.9769 73.8717C25.1555 73.6863 25.3704 73.5396 25.6081 73.4408C25.8459 73.3419 26.1014 73.2931 26.3588 73.2972C26.8238 73.2922 27.2736 73.4627 27.6185 73.7747C27.9709 74.0767 28.2018 74.4964 28.2683 74.9558C28.3112 75.1398 28.3136 75.3309 28.2753 75.5158H25.1243C25.156 75.8153 25.3027 76.0908 25.5334 76.2842C25.765 76.4763 26.0581 76.5783 26.3588 76.5713C26.5745 76.5798 26.789 76.5358 26.984 76.4433C27.179 76.3508 27.3487 76.2124 27.4786 76.0399L28.1319 76.2052C27.9709 76.5195 27.718 76.7774 27.4068 76.9445C27.0881 77.1282 26.7267 77.2247 26.3588 77.2246V77.2246ZM25.8168 72.7049C25.7343 72.7868 25.6227 72.8327 25.5065 72.8326C25.3903 72.8325 25.2788 72.7865 25.1964 72.7045C25.114 72.6225 25.0673 72.5113 25.0666 72.395C25.0658 72.2788 25.1111 72.167 25.1925 72.084C25.2326 72.0419 25.2811 72.0086 25.3348 71.9864C25.3885 71.9642 25.4463 71.9534 25.5044 71.9548C25.591 71.9554 25.6755 71.9815 25.7474 72.0298C25.8193 72.0781 25.8754 72.1465 25.9087 72.2265C25.942 72.3064 25.9511 72.3944 25.9347 72.4795C25.9184 72.5646 25.8774 72.643 25.8168 72.7049V72.7049ZM27.5578 74.9701C27.5193 74.6872 27.3788 74.428 27.1627 74.2414C26.9385 74.0461 26.649 73.9423 26.3518 73.9507C26.0525 73.943 25.7609 74.0466 25.5335 74.2414C25.3131 74.4266 25.1677 74.6856 25.1243 74.9701H27.5578ZM27.4465 72.7049C27.375 72.7783 27.2802 72.8247 27.1784 72.836C27.0766 72.8474 26.974 72.823 26.8881 72.7671C26.8022 72.7112 26.7384 72.6272 26.7075 72.5295C26.6767 72.4318 26.6807 72.3264 26.7189 72.2313C26.7571 72.1362 26.8271 72.0573 26.9169 72.0081C27.0068 71.9588 27.111 71.9423 27.2117 71.9614C27.3123 71.9804 27.4033 72.0339 27.469 72.1125C27.5347 72.1912 27.571 72.2902 27.5719 72.3927C27.5733 72.4505 27.563 72.508 27.5414 72.5617C27.5199 72.6154 27.4875 72.6642 27.4465 72.7049V72.7049Z" fill="#037B35"/>
<path d="M34.2975 76.5425H34.8431V78H34.1686V77.1672H31.2467V78H30.5723V76.5425C31.0699 76.5379 31.3187 76.1095 31.3189 75.2573V73.3619H34.2975L34.2975 76.5425ZM31.7497 76.5425H33.587V73.9866H32.0295V75.243C32.049 75.693 31.9526 76.1404 31.7497 76.5425Z" fill="#037B35"/>
<path d="M35.332 77.1887V76.5641C35.4687 76.5777 35.6067 76.558 35.7342 76.5066C35.8382 76.46 35.9205 76.3752 35.9638 76.2697C36.0094 76.1667 36.0408 76.0581 36.0571 75.9467C36.0729 75.8133 36.0801 75.679 36.0787 75.5447V73.3619H39.1149V77.1672H38.3969V74.0297H36.7963V75.5517C36.7991 75.7738 36.7762 75.9954 36.7281 76.2122C36.6849 76.3986 36.6096 76.5759 36.5054 76.7363C36.3961 76.8995 36.2379 77.0239 36.0536 77.0917C35.8228 77.1753 35.5767 77.2084 35.332 77.1887V77.1887Z" fill="#037B35"/>
<path d="M39.7324 77.1672L40.644 75.7455C40.4048 75.6724 40.1941 75.527 40.0408 75.3292C39.8816 75.1243 39.798 74.8707 39.8041 74.6113C39.8009 74.4462 39.8317 74.2823 39.8947 74.1297C39.9577 73.9771 40.0515 73.8392 40.1702 73.7245C40.2908 73.605 40.4344 73.5112 40.5923 73.4489C40.7502 73.3866 40.9192 73.357 41.0888 73.3619H43.1418V77.1672H42.4457V75.8318H41.3907L40.5292 77.1672H39.7324ZM41.2613 75.2071H42.4457V73.9866H41.2327C41.0453 73.9767 40.8613 74.0397 40.7193 74.1624C40.6582 74.2168 40.6096 74.2838 40.5768 74.3588C40.544 74.4338 40.5278 74.5149 40.5292 74.5967C40.526 74.6822 40.5433 74.7671 40.5794 74.8446C40.6156 74.922 40.6697 74.9897 40.7373 75.0421C40.8877 75.156 41.0728 75.2143 41.2613 75.2071V75.2071Z" fill="#037B35"/>
<path d="M47.1398 77.1672V74.0152H45.7188V73.3619H49.2288V74.0152H47.8579V77.1672H47.1398Z" fill="#037B35"/>
<path d="M50.0957 73.8717C50.4398 73.5216 50.9049 73.3166 51.3954 73.2985C51.8859 73.2805 52.3648 73.4509 52.7337 73.7747C53.0861 74.0768 53.317 74.4964 53.3836 74.9558C53.4061 75.0597 53.418 75.1656 53.4192 75.2718C53.4196 75.354 53.41 75.4359 53.3906 75.5158H50.2395C50.2712 75.8153 50.4179 76.0908 50.6487 76.2842C50.8802 76.4763 51.1733 76.5783 51.4741 76.5713C51.6898 76.5798 51.9043 76.5359 52.0993 76.4433C52.2943 76.3508 52.4639 76.2124 52.5938 76.0399L53.2472 76.2052C53.0861 76.5195 52.8332 76.7774 52.5221 76.9445C52.2033 77.1282 51.8419 77.2248 51.4741 77.2246C51.2154 77.2302 50.9584 77.1821 50.7193 77.0832C50.4802 76.9844 50.2643 76.837 50.0851 76.6503C49.7219 76.2784 49.5195 75.7787 49.5215 75.2589C49.5235 74.739 49.7297 74.2408 50.0956 73.8717H50.0957ZM50.2395 74.9774H52.673C52.6315 74.6888 52.486 74.4252 52.264 74.2361C52.0419 74.0471 51.7586 73.9456 51.467 73.9507C51.1731 73.945 50.8869 74.0458 50.6613 74.2344C50.4357 74.4231 50.2859 74.687 50.2395 74.9774V74.9774Z" fill="#037B35"/>
<path d="M54.0156 77.1672V73.3619H57.4967V77.1672H56.7791V74.0297H54.7332V77.1672H54.0156Z" fill="#037B35"/>
<path d="M58.0781 77.1887V76.5641C58.2148 76.5777 58.3528 76.558 58.4803 76.5066C58.5843 76.46 58.6665 76.3752 58.7099 76.2697C58.7555 76.1667 58.7869 76.0581 58.8032 75.9467C58.819 75.8133 58.8262 75.679 58.8248 75.5447V73.3619H61.861V77.1672H61.143V74.0297H59.5424V75.5517C59.5452 75.7738 59.5223 75.9954 59.4742 76.2122C59.431 76.3986 59.3557 76.5759 59.2516 76.7363C59.1422 76.8995 58.984 77.0239 58.7997 77.0917C58.5689 77.1753 58.3228 77.2084 58.0781 77.1887Z" fill="#037B35"/>
<path d="M66.247 73.3619V77.1672H65.551V73.6849L63.9715 77.1672H62.6582V73.3619H63.3542V76.7867L64.9047 73.3619H66.247Z" fill="#037B35"/>
<path d="M70.1873 76.4994H70.7544V78H70.0584V77.1672H67.0508V73.3619H67.7543V76.4994H69.4838V73.3619H70.1873V76.4994Z" fill="#037B35"/>
</g>
<defs>
<clipPath id="clip0_18_108">
<rect width="87" height="78" fill="white"/>
</clipPath>
</defs>
</svg>
