<svg width="35" height="35" viewBox="0 0 35 35" fill="none" xmlns="http://www.w3.org/2000/svg">
<g clip-path="url(#clip0_624_65)">
<path d="M12.6113 10.244C12.5449 10.1586 12.461 10.0882 12.3654 10.0377C12.2697 9.98716 12.1643 9.95755 12.0563 9.95085C11.9483 9.94414 11.8401 9.9605 11.739 9.99882C11.6378 10.0371 11.5459 10.0966 11.4694 10.1731L10.3062 11.3375C9.76278 11.882 9.56253 12.6526 9.7999 13.3287C10.7851 16.1273 12.3877 18.6681 14.4889 20.7627C16.5836 22.8639 19.1244 24.4665 21.9229 25.4517C22.599 25.6891 23.3697 25.4889 23.9142 24.9455L25.0774 23.7822C25.154 23.7058 25.2134 23.6139 25.2517 23.5127C25.29 23.4115 25.3064 23.3033 25.2997 23.1953C25.293 23.0873 25.2634 22.982 25.2128 22.8863C25.1623 22.7906 25.092 22.7068 25.0065 22.6404L22.4112 20.6221C22.3199 20.5513 22.2137 20.5022 22.1007 20.4784C21.9877 20.4546 21.8707 20.4569 21.7587 20.4849L19.2949 21.1002C18.966 21.1824 18.6215 21.1781 18.2948 21.0876C17.9682 20.9971 17.6705 20.8236 17.4308 20.5839L14.6678 17.8197C14.4279 17.5802 14.2541 17.2825 14.1635 16.9559C14.0728 16.6292 14.0682 16.2846 14.1503 15.9556L14.7668 13.4919C14.7948 13.3798 14.797 13.2629 14.7732 13.1498C14.7495 13.0368 14.7003 12.9306 14.6295 12.8394L12.6113 10.244ZM10.62 9.32487C10.8169 9.12794 11.0534 8.97514 11.3139 8.87663C11.5743 8.77811 11.8527 8.73613 12.1307 8.75348C12.4086 8.77082 12.6796 8.84709 12.9258 8.97722C13.172 9.10735 13.3877 9.28837 13.5585 9.50825L15.5768 12.1025C15.9469 12.5784 16.0774 13.1982 15.9312 13.7832L15.3158 16.247C15.284 16.3746 15.2857 16.5083 15.3208 16.635C15.3559 16.7618 15.4231 16.8773 15.516 16.9704L18.2802 19.7345C18.3733 19.8276 18.4891 19.895 18.616 19.9301C18.743 19.9652 18.8769 19.9668 19.0047 19.9347L21.4673 19.3194C21.756 19.2472 22.0573 19.2416 22.3485 19.303C22.6396 19.3644 22.9131 19.4912 23.148 19.6737L25.7423 21.692C26.6749 22.4176 26.7604 23.7957 25.9257 24.6294L24.7624 25.7926C23.9299 26.6251 22.6857 26.9907 21.5258 26.5824C18.5571 25.5378 15.8617 23.8383 13.6395 21.6099C11.4112 19.388 9.71171 16.693 8.66703 13.7247C8.25978 12.566 8.6254 11.3206 9.4579 10.4881L10.6212 9.32487H10.62Z" fill="#037B35"/>
</g>
<circle cx="17.5" cy="17.75" r="16.3125" stroke="#037B35" stroke-width="1.125"/>
<defs>
<clipPath id="clip0_624_65">
<rect width="18" height="18" fill="white" transform="translate(8.5 8.75)"/>
</clipPath>
</defs>
</svg>
